<svg width="82" height="14" fill="none" xmlns="http://www.w3.org/2000/svg"><path d="M7 0l1.572 4.837h5.085l-4.114 2.99 1.572 4.836L7 9.673l-4.114 2.99 1.571-4.837-4.114-2.99h5.085L7 0z" fill="#FF9D2B"/><path d="M24 0l1.572 4.837h5.085l-4.114 2.99 1.572 4.836L24 9.673l-4.114 2.99 1.571-4.837-4.114-2.99h5.085L24 0zm17 0l1.572 4.837h5.085l-4.114 2.99 1.572 4.836L41 9.673l-4.114 2.99 1.571-4.837-4.114-2.99h5.085L41 0zm17 0l1.572 4.837h5.085l-4.114 2.99 1.572 4.836L58 9.673l-4.114 2.99 1.571-4.837-4.114-2.99h5.085L58 0z" fill="#FF9D2A"/><path d="M75 0l1.572 4.837h5.085l-4.114 2.99 1.572 4.836L75 9.673l-4.115 2.99 1.572-4.837-4.114-2.99h5.085L75 0z" fill="#B8B8B8"/></svg>